{
  "accessors": [
    {
      "bufferView": 2,
      "componentType": 5126,
      "count": 4878,
      "max": [
        1.0000090599060059,
        1.6248586177825928,
        1.0
      ],
      "min": [
        -2.5856494903564453,
        -1.256259799003601,
        -1.2036967277526855
      ],
      "type": "VEC3"
    },
    {
      "bufferView": 2,
      "byteOffset": 58536,
      "componentType": 5126,
      "count": 4878,
      "max": [
        1.0,
        1.0,
        1.0
      ],
      "min": [
        -1.0,
        -1.0,
        -1.0
      ],
      "type": "VEC3"
    },
    {
      "bufferView": 1,
      "componentType": 5126,
      "count": 4878,
      "max": [
        0.9999999403953552,
        1.0
      ],
      "min": [
        0.0,
        0.0
      ],
      "type": "VEC2"
    },
    {
      "bufferView": 1,
      "byteOffset": 39024,
      "componentType": 5126,
      "count": 4878,
      "max": [
        0.9999999403953552,
        1.0
      ],
      "min": [
        0.0,
        0.0
      ],
      "type": "VEC2"
    },
    {
      "bufferView": 0,
      "componentType": 5125,
      "count": 11661,
      "type": "SCALAR"
    },
    {
      "bufferView": 2,
      "byteOffset": 117072,
      "componentType": 5126,
      "count": 47488,
      "max": [
        -2.531207323074341,
        1.056092381477356,
        0.5776966214179993
      ],
      "min": [
        -2.536423444747925,
        0.18997707962989807,
        -0.9375491738319397
      ],
      "type": "VEC3"
    },
    {
      "bufferView": 2,
      "byteOffset": 686928,
      "componentType": 5126,
      "count": 47488,
      "max": [
        1.0,
        1.0,
        1.0
      ],
      "min": [
        -1.0,
        -1.0,
        -1.0
      ],
      "type": "VEC3"
    },
    {
      "bufferView": 1,
      "byteOffset": 78048,
      "componentType": 5126,
      "count": 47488,
      "max": [
        1.0,
        1.0
      ],
      "min": [
        0.0,
        0.0
      ],
      "type": "VEC2"
    },
    {
      "bufferView": 1,
      "byteOffset": 457952,
      "componentType": 5126,
      "count": 47488,
      "max": [
        1.0,
        1.0
      ],
      "min": [
        0.0,
        0.0
      ],
      "type": "VEC2"
    },
    {
      "bufferView": 0,
      "byteOffset": 46644,
      "componentType": 5125,
      "count": 68400,
      "type": "SCALAR"
    },
    {
      "bufferView": 2,
      "byteOffset": 1256784,
      "componentType": 5126,
      "count": 22161,
      "max": [
        -1.330378770828247,
        1.5626559257507324,
        -0.6189988851547241
      ],
      "min": [
        -2.506856918334961,
        -1.245421290397644,
        -1.2041151523590088
      ],
      "type": "VEC3"
    },
    {
      "bufferView": 2,
      "byteOffset": 1522716,
      "componentType": 5126,
      "count": 22161,
      "max": [
        1.0,
        1.0,
        1.0
      ],
      "min": [
        -1.0,
        -1.0,
        -1.0
      ],
      "type": "VEC3"
    },
    {
      "bufferView": 1,
      "byteOffset": 837856,
      "componentType": 5126,
      "count": 22161,
      "max": [
        1.0,
        1.0
      ],
      "min": [
        0.0,
        0.0
      ],
      "type": "VEC2"
    },
    {
      "bufferView": 1,
      "byteOffset": 1015144,
      "componentType": 5126,
      "count": 22161,
      "max": [
        1.0,
        1.0
      ],
      "min": [
        0.0,
        0.0
      ],
      "type": "VEC2"
    },
    {
      "bufferView": 0,
      "byteOffset": 320244,
      "componentType": 5125,
      "count": 106062,
      "type": "SCALAR"
    },
    {
      "bufferView": 2,
      "byteOffset": 1788648,
      "componentType": 5126,
      "count": 177,
      "max": [
        -0.6531413793563843,
        -0.6838304400444031,
        0.27750635147094727
      ],
      "min": [
        -0.9684674143791199,
        -1.0000001192092896,
        -1.188647747039795
      ],
      "type": "VEC3"
    },
    {
      "bufferView": 2,
      "byteOffset": 1790772,
      "componentType": 5126,
      "count": 177,
      "max": [
        1.0,
        1.0,
        1.0
      ],
      "min": [
        -1.0,
        -1.0,
        -1.0
      ],
      "type": "VEC3"
    },
    {
      "bufferView": 1,
      "byteOffset": 1192432,
      "componentType": 5126,
      "count": 177,
      "max": [
        1.0,
        1.0
      ],
      "min": [
        0.0,
        0.0
      ],
      "type": "VEC2"
    },
    {
      "bufferView": 1,
      "byteOffset": 1193848,
      "componentType": 5126,
      "count": 177,
      "max": [
        1.0,
        1.0
      ],
      "min": [
        0.0,
        0.0
      ],
      "type": "VEC2"
    },
    {
      "bufferView": 0,
      "byteOffset": 744492,
      "componentType": 5125,
      "count": 345,
      "type": "SCALAR"
    },
    {
      "bufferView": 2,
      "byteOffset": 1792896,
      "componentType": 5126,
      "count": 42,
      "max": [
        -0.0067288875579833984,
        0.012722313404083252,
        0.7170668840408325
      ],
      "min": [
        -0.16439183056354523,
        -0.024489998817443848,
        -0.7490872144699097
      ],
      "type": "VEC3"
    },
    {
      "bufferView": 2,
      "byteOffset": 1793400,
      "componentType": 5126,
      "count": 42,
      "max": [
        1.0,
        1.0,
        1.0
      ],
      "min": [
        -1.0,
        -1.0,
        -1.0
      ],
      "type": "VEC3"
    },
    {
      "bufferView": 1,
      "byteOffset": 1195264,
      "componentType": 5126,
      "count": 42,
      "max": [
        1.0,
        1.0
      ],
      "min": [
        0.0,
        0.0
      ],
      "type": "VEC2"
    },
    {
      "bufferView": 1,
      "byteOffset": 1195600,
      "componentType": 5126,
      "count": 42,
      "max": [
        1.0,
        1.0
      ],
      "min": [
        0.0,
        0.0
      ],
      "type": "VEC2"
    },
    {
      "bufferView": 0,
      "byteOffset": 745872,
      "componentType": 5125,
      "count": 66,
      "type": "SCALAR"
    },
    {
      "bufferView": 2,
      "byteOffset": 1793904,
      "componentType": 5126,
      "count": 42,
      "max": [
        0.1588144153356552,
        0.012722313404083252,
        0.7170668840408325
      ],
      "min": [
        0.0011513233184814453,
        -0.024489998817443848,
        -0.7490872144699097
      ],
      "type": "VEC3"
    },
    {
      "bufferView": 2,
      "byteOffset": 1794408,
      "componentType": 5126,
      "count": 42,
      "max": [
        1.0,
        1.0,
        1.0
      ],
      "min": [
        -1.0,
        -1.0,
        -1.0
      ],
      "type": "VEC3"
    },
    {
      "bufferView": 1,
      "byteOffset": 1195936,
      "componentType": 5126,
      "count": 42,
      "max": [
        1.0,
        1.0
      ],
      "min": [
        0.0,
        0.0
      ],
      "type": "VEC2"
    },
    {
      "bufferView": 1,
      "byteOffset": 1196272,
      "componentType": 5126,
      "count": 42,
      "max": [
        1.0,
        1.0
      ],
      "min": [
        0.0,
        0.0
      ],
      "type": "VEC2"
    },
    {
      "bufferView": 0,
      "byteOffset": 746136,
      "componentType": 5125,
      "count": 66,
      "type": "SCALAR"
    }
  ],
  "asset": {
    "extras": {
      "author": "dylanheyes (https://sketchfab.com/dylanheyes)",
      "license": "CC-BY-4.0 (http://creativecommons.org/licenses/by/4.0/)",
      "source": "https://sketchfab.com/3d-models/small-cafe-0c4d6d98c48c46e6b71f2914fd049c8e",
      "title": "Small Cafe"
    },
    "generator": "Sketchfab-15.16.0",
    "version": "2.0"
  },
  "bufferViews": [
    {
      "buffer": 0,
      "byteLength": 746400,
      "name": "floatBufferViews",
      "target": 34963
    },
    {
      "buffer": 0,
      "byteLength": 1196608,
      "byteOffset": 746400,
      "byteStride": 8,
      "name": "floatBufferViews",
      "target": 34962
    },
    {
      "buffer": 0,
      "byteLength": 1794912,
      "byteOffset": 1943008,
      "byteStride": 12,
      "name": "floatBufferViews",
      "target": 34962
    }
  ],
  "buffers": [
    {
      "byteLength": 3737920,
      "uri": "scene.bin"
    }
  ],
  "images": [
    {
      "uri": "textures/Structure_baseColor.png"
    },
    {
      "uri": "textures/Sign_baseColor.png"
    },
    {
      "uri": "textures/Tables_baseColor.png"
    },
    {
      "uri": "textures/Fridge_baseColor.png"
    },
    {
      "uri": "textures/FridgeDoorLeft_baseColor.png"
    },
    {
      "uri": "textures/FridgeDoorRight_baseColor.png"
    }
  ],
  "materials": [
    {
      "emissiveFactor": [
        1.0,
        1.0,
        1.0
      ],
      "emissiveTexture": {
        "index": 0,
        "texCoord": 1
      },
      "name": "Structure",
      "pbrMetallicRoughness": {
        "baseColorTexture": {
          "index": 0
        },
        "metallicFactor": 0.0,
        "roughnessFactor": 0.8211145618000169
      }
    },
    {
      "doubleSided": true,
      "emissiveFactor": [
        1.0,
        1.0,
        1.0
      ],
      "emissiveTexture": {
        "index": 1,
        "texCoord": 1
      },
      "name": "Sign",
      "pbrMetallicRoughness": {
        "baseColorTexture": {
          "index": 1
        },
        "metallicFactor": 0.0,
        "roughnessFactor": 0.8211145618000169
      }
    },
    {
      "doubleSided": true,
      "emissiveFactor": [
        1.0,
        1.0,
        1.0
      ],
      "emissiveTexture": {
        "index": 2
      },
      "name": "Tables",
      "pbrMetallicRoughness": {
        "baseColorTexture": {
          "index": 2
        },
        "metallicFactor": 0.0,
        "roughnessFactor": 0.8211145618000169
      }
    },
    {
      "doubleSided": true,
      "emissiveFactor": [
        1.0,
        1.0,
        1.0
      ],
      "emissiveTexture": {
        "index": 3,
        "texCoord": 1
      },
      "name": "Fridge",
      "pbrMetallicRoughness": {
        "baseColorTexture": {
          "index": 3
        },
        "metallicFactor": 0.0,
        "roughnessFactor": 0.8211145618000169
      }
    },
    {
      "doubleSided": true,
      "emissiveFactor": [
        1.0,
        1.0,
        1.0
      ],
      "emissiveTexture": {
        "index": 4
      },
      "name": "FridgeDoorLeft",
      "pbrMetallicRoughness": {
        "baseColorTexture": {
          "index": 4
        },
        "metallicFactor": 0.0,
        "roughnessFactor": 0.8211145618000169
      }
    },
    {
      "doubleSided": true,
      "emissiveFactor": [
        1.0,
        1.0,
        1.0
      ],
      "emissiveTexture": {
        "index": 5
      },
      "name": "FridgeDoorRight",
      "pbrMetallicRoughness": {
        "baseColorTexture": {
          "index": 5
        },
        "metallicFactor": 0.0,
        "roughnessFactor": 0.8211145618000169
      }
    }
  ],
  "meshes": [
    {
      "name": "SmallCafe_Structure_0",
      "primitives": [
        {
          "attributes": {
            "NORMAL": 1,
            "POSITION": 0,
            "TEXCOORD_0": 2,
            "TEXCOORD_1": 3
          },
          "indices": 4,
          "material": 0,
          "mode": 4
        }
      ]
    },
    {
      "name": "SmallCafe_Sign_0",
      "primitives": [
        {
          "attributes": {
            "NORMAL": 6,
            "POSITION": 5,
            "TEXCOORD_0": 7,
            "TEXCOORD_1": 8
          },
          "indices": 9,
          "material": 1,
          "mode": 4
        }
      ]
    },
    {
      "name": "SmallCafe_Tables_0",
      "primitives": [
        {
          "attributes": {
            "NORMAL": 11,
            "POSITION": 10,
            "TEXCOORD_0": 12,
            "TEXCOORD_1": 13
          },
          "indices": 14,
          "material": 2,
          "mode": 4
        }
      ]
    },
    {
      "name": "Fridge_Fridge_0",
      "primitives": [
        {
          "attributes": {
            "NORMAL": 16,
            "POSITION": 15,
            "TEXCOORD_0": 17,
            "TEXCOORD_1": 18
          },
          "indices": 19,
          "material": 3,
          "mode": 4
        }
      ]
    },
    {
      "name": "FDoorL_FridgeDoorLeft_0",
      "primitives": [
        {
          "attributes": {
            "NORMAL": 21,
            "POSITION": 20,
            "TEXCOORD_0": 22,
            "TEXCOORD_1": 23
          },
          "indices": 24,
          "material": 4,
          "mode": 4
        }
      ]
    },
    {
      "name": "FDoorR_FridgeDoorRight_0",
      "primitives": [
        {
          "attributes": {
            "NORMAL": 26,
            "POSITION": 25,
            "TEXCOORD_0": 27,
            "TEXCOORD_1": 28
          },
          "indices": 29,
          "material": 5,
          "mode": 4
        }
      ]
    }
  ],
  "nodes": [
    {
      "children": [
        1
      ],
      "matrix": [
        0.17213547229766846,
        0.0,
        0.0,
        0.0,
        0.0,
        3.8221752939919464e-17,
        -0.17213547229766846,
        0.0,
        0.0,
        0.17213547229766846,
        3.8221752939919464e-17,
        0.0,
        0.0,
        0.0,
        0.0,
        1.0
      ],
      "name": "Sketchfab_model"
    },
    {
      "children": [
        2
      ],
      "matrix": [
        0.009999999776482582,
        0.0,
        0.0,
        0.0,
        0.0,
        0.0,
        0.009999999776482582,
        0.0,
        0.0,
        -0.009999999776482582,
        0.0,
        0.0,
        0.0,
        0.0,
        0.0,
        1.0
      ],
      "name": "Small Cafe.fbx"
    },
    {
      "children": [
        3
      ],
      "name": "RootNode"
    },
    {
      "children": [
        4,
        5,
        6,
        7
      ],
      "matrix": [
        3094.000244140625,
        0.0,
        0.0,
        0.0,
        0.0,
        -0.00022238672736984988,
        -1364.999999999982,
        0.0,
        0.0,
        910.0000610351442,
        -0.00014825782819045572,
        0.0,
        0.0,
        0.0,
        0.0,
        1.0
      ],
      "name": "SmallCafe"
    },
    {
      "mesh": 0,
      "name": "SmallCafe_Structure_0"
    },
    {
      "mesh": 1,
      "name": "SmallCafe_Sign_0"
    },
    {
      "mesh": 2,
      "name": "SmallCafe_Tables_0"
    },
    {
      "children": [
        8,
        9,
        11
      ],
      "matrix": [
        1.0,
        0.0,
        0.0,
        0.0,
        0.0,
        1.000000238418579,
        0.0,
        0.0,
        0.0,
        0.0,
        1.0,
        0.0,
        0.0,
        0.0,
        0.0,
        1.0
      ],
      "name": "Fridge"
    },
    {
      "mesh": 3,
      "name": "Fridge_Fridge_0"
    },
    {
      "children": [
        10
      ],
      "matrix": [
        0.9999998211860657,
        0.0,
        0.0,
        0.0,
        0.0,
        1.000000238418579,
        0.0,
        0.0,
        0.0,
        0.0,
        0.9999998807907104,
        0.0,
        -0.6464123725891113,
        -0.6593405604362488,
        -0.4395604133605957,
        1.0
      ],
      "name": "FDoorL"
    },
    {
      "mesh": 4,
      "name": "FDoorL_FridgeDoorLeft_0"
    },
    {
      "children": [
        12
      ],
      "matrix": [
        0.9999998211860657,
        0.0,
        0.0,
        0.0,
        0.0,
        1.000000238418579,
        0.0,
        0.0,
        0.0,
        0.0,
        0.9999998807907104,
        0.0,
        -0.969618558883667,
        -0.6593405604362488,
        -0.4395604133605957,
        1.0
      ],
      "name": "FDoorR"
    },
    {
      "mesh": 5,
      "name": "FDoorR_FridgeDoorRight_0"
    }
  ],
  "samplers": [
    {
      "magFilter": 9729,
      "minFilter": 9987,
      "wrapS": 10497,
      "wrapT": 10497
    }
  ],
  "scene": 0,
  "scenes": [
    {
      "name": "Sketchfab_Scene",
      "nodes": [
        0
      ]
    }
  ],
  "textures": [
    {
      "sampler": 0,
      "source": 0
    },
    {
      "sampler": 0,
      "source": 1
    },
    {
      "sampler": 0,
      "source": 2
    },
    {
      "sampler": 0,
      "source": 3
    },
    {
      "sampler": 0,
      "source": 4
    },
    {
      "sampler": 0,
      "source": 5
    }
  ]
}
